# xmcd CD database file
#
# Track frame offsets:
#	150
#	20407
#	26297
#	33060
#	49042
#	53017
#	61385
#	78075
#	110715
#	114285
#	133085
#	147917
#	151587
#	156505
#	171352
#	187140
#	229845
#
# Disc length: 3640 seconds
#
# Revision: 0
# Processed by: cddbd v1.5.1PL2 Copyright (c) Steve Scherf et al.
# Submitted via: CDex 1.51
#
DISCID=d80e3611
DTITLE=川井憲次 - 修羅雪姫 オリジナル・サウンドトラック
DYEAR=1900
DGENRE=Anime
TTITLE0=序曲
TTITLE1=母の記憶
TTITLE2=空暇
TTITLE3=運命
TTITLE4=雪と隆1
TTITLE5=建御雷
TTITLE6=母の遺言
TTITLE7=死闘1
TTITLE8=絶望
TTITLE9=雪と隆2
TTITLE10=彩
TTITLE11=真覇瑠島の記憶
TTITLE12=黄枢厘記念講堂の見取り図
TTITLE13=精霊のささやき
TTITLE14=希望
TTITLE15=死闘2
TTITLE16=新たな誓い
EXTD=
EXTT0=
EXTT1=
EXTT2=
EXTT3=
EXTT4=
EXTT5=
EXTT6=
EXTT7=
EXTT8=
EXTT9=
EXTT10=
EXTT11=
EXTT12=
EXTT13=
EXTT14=
EXTT15=
EXTT16=
PLAYORDER=
